# xmcd
#
# Track frame offsets:
#	150
#	18299
#	37518
#	56313
#
# Disc length: 942 seconds
#
# Revision: 1
# Processed by: cddbd v1.5.2PL0 Copyright (c) Steve Scherf et al.
# Submitted via: EasyCDDAExtractor 10.0.3.1
#
DISCID=1c03ac04
DTITLE=FIOLKA - SINGLE
DYEAR=2000
DGENRE=
TTITLE0=Głośny Śmiech - RADIO VERSION
TTITLE1=Głośny Śmiech - ALBUM VERSION
TTITLE2=Głośny Śmiech - REMIX
TTITLE3=Breteho (Vreteno)
EXTD=YEAR: 1995
EXTT0=
EXTT1=
EXTT2=
EXTT3=
PLAYORDER=
